# xmcd
#
# Track frame offsets:
#	150
#	25011
#	47993
#	69589
#	93569
#	121882
#	145867
#	171045
#	196151
#
# Disc length: 2939 seconds
#
# Revision: 1
# Processed by: cddbd v1.5PL3 Copyright (c) Steve Scherf et al.
# Submitted via: CDex 1.50Beta5
#
DISCID=770b7909
DTITLE=Various Artist - 加奈〜いもうと〜スペシャルサウンドアルバム
DYEAR=2001
DGENRE=Soundtrack
TTITLE0=KANA/白い季節(REMIX Ver.)
TTITLE1=鬼頭利枝/風に乗って
TTITLE2=二見直子/Dream a dream
TTITLE3=KANA/Believe〜つぶらな瞳〜
TTITLE4=二見直子/Snowflake〜思い出のの果て、雪は降る〜
TTITLE5=鬼頭利枝/はじまりのさよなら
TTITLE6=KANA/あなたに出会えてよかった
TTITLE7=KANA/あなたへ(REMIX Ver.)
TTITLE8=あなたへ〜機械式オルゴールバージョン(from Project“KANA ORGEL”)
EXTD=
EXTT0=
EXTT1=
EXTT2=
EXTT3=
EXTT4=
EXTT5=
EXTT6=
EXTT7=
EXTT8=
PLAYORDER=
